<?xml version="1.0" standalone="no"?><!DOCTYPE svg PUBLIC "-//W3C//DTD SVG 1.1//EN" "http://www.w3.org/Graphics/SVG/1.1/DTD/svg11.dtd"><svg t="1542854607061" class="icon" style="" viewBox="0 0 1024 1024" version="1.1" xmlns="http://www.w3.org/2000/svg" p-id="2015" xmlns:xlink="http://www.w3.org/1999/xlink" width="200" height="200"><defs><style type="text/css"></style></defs><path d="M809.152 960H214.848C131.648 960 64 892.352 64 809.152V214.848C64 131.648 131.648 64 214.848 64h594.304C892.352 64 960 131.648 960 214.848v594.304C960 892.352 892.352 960 809.152 960zM214.848 128C166.976 128 128 166.976 128 214.848v594.304C128 857.024 166.976 896 214.848 896h594.304C857.024 896 896 857.024 896 809.152V214.848C896 166.976 857.024 128 809.152 128H214.848z" fill="" p-id="2016"></path></svg>