<?xml version="1.0" standalone="no"?><!DOCTYPE svg PUBLIC "-//W3C//DTD SVG 1.1//EN" "http://www.w3.org/Graphics/SVG/1.1/DTD/svg11.dtd"><svg t="1542854992357" class="icon" style="" viewBox="0 0 1024 1024" version="1.1" xmlns="http://www.w3.org/2000/svg" p-id="3568" xmlns:xlink="http://www.w3.org/1999/xlink" width="200" height="200"><defs><style type="text/css"></style></defs><path d="M512 508c-70.592 0-128-57.408-128-128s57.408-128 128-128 128 57.408 128 128-57.408 128-128 128zM512 316c-35.296 0-64 28.704-64 64s28.704 64 64 64 64-28.704 64-64-28.704-64-64-64z" p-id="3569"></path><path d="M295.136 646.88c-137.248-137.248-137.248-360.576 0-497.824l45.248 45.248c-112.288 112.32-112.288 295.008 0 407.328l-45.248 45.248z" p-id="3570"></path><path d="M149.408 743.264c-198.88-199.04-198.88-522.848 0-721.888l45.28 45.248c-173.984 174.048-173.984 457.312 0 631.36l-45.28 45.28z" p-id="3571"></path><path d="M728.928 631.2l-45.248-45.248c112.256-112.288 112.256-295.008 0-407.328l45.28-45.248c137.184 137.28 137.184 360.608-0.032 497.824z" p-id="3572"></path><path d="M874.592 758.88l-45.28-45.248c173.984-174.08 173.984-457.28 0-631.328l45.248-45.248c198.912 198.976 198.912 522.784 0.032 721.824z" p-id="3573"></path><path d="M640 756.8l-64 0 0-64.8c0-35.296-28.704-64-64-64s-64 28.704-64 64l0 64.8-64 0 0-64.8c0-70.592 57.408-128 128-128s128 57.408 128 128l0 64.8z" p-id="3574"></path><path d="M640 1012l-256 0 0-192.8 256 0 0 192.8zM448 948l128 0 0-64.8-128 0 0 64.8z" p-id="3575"></path></svg>