<?xml version="1.0" standalone="no"?><!DOCTYPE svg PUBLIC "-//W3C//DTD SVG 1.1//EN" "http://www.w3.org/Graphics/SVG/1.1/DTD/svg11.dtd"><svg t="1542854935686" class="icon" style="" viewBox="0 0 1024 1024" version="1.1" xmlns="http://www.w3.org/2000/svg" p-id="3275" xmlns:xlink="http://www.w3.org/1999/xlink" width="200" height="200"><defs><style type="text/css"></style></defs><path d="M800.84 190.56A99.584 99.584 0 0 0 844 200.344c55.232 0 100.176-44.936 100.176-100.168C944.176 44.936 899.232 0 844 0S743.824 44.936 743.824 100.176c0 15.44 3.52 30.08 9.792 43.16l-57.008 57.008H457.136L364.368 107.576a33.4 33.4 0 0 0-47.224 0C189.736 234.992 174.04 435.68 277.888 580.744a134.4 134.4 0 0 0-1.544 20.304v222.608H176.176C120.936 823.648 76 868.592 76 923.824v66.784A33.392 33.392 0 0 0 109.392 1024h601.04a33.392 33.392 0 0 0 33.4-33.392v-66.784c0-55.232-44.944-100.176-100.176-100.176H543.48v-90.56a366.496 366.496 0 0 0 293.12-106.064 33.4 33.4 0 0 0 0-47.224L743.824 487.04V247.568l57.008-57.008zM844 66.784a33.432 33.432 0 0 1 33.392 33.392A33.432 33.432 0 0 1 844 133.568a33.432 33.432 0 0 1-33.392-33.392A33.432 33.432 0 0 1 844 66.784zM629.816 267.12l-52.944 52.96-52.96-52.96h105.904z m47.224 47.224v105.904l-52.952-52.952 52.96-52.952z m-33.384 576.08a33.432 33.432 0 0 1 33.384 33.392v33.392H142.784v-33.392a33.432 33.432 0 0 1 33.392-33.392h467.48z m-300.528-66.776V601.04c0-36.824 29.96-66.776 66.784-66.776 36.824 0 66.784 29.952 66.784 66.776v222.616H343.12z m421.328-221.544a299.864 299.864 0 0 1-220.976 63.864V601.04c0-73.64-59.92-133.56-133.568-133.56-38.496 0-73.224 16.4-97.624 42.544-56.904-105.224-45.72-235.928 29.776-330.304l77.624 77.624 344.768 344.768z" fill="#707070" p-id="3276"></path></svg>