<?xml version="1.0" standalone="no"?><!DOCTYPE svg PUBLIC "-//W3C//DTD SVG 1.1//EN" "http://www.w3.org/Graphics/SVG/1.1/DTD/svg11.dtd"><svg t="1542855110477" class="icon" style="" viewBox="0 0 1024 1024" version="1.1" xmlns="http://www.w3.org/2000/svg" p-id="4495" xmlns:xlink="http://www.w3.org/1999/xlink" width="200" height="200"><defs><style type="text/css"></style></defs><path d="M836.43792 0q14.848 0 25.728 10.848t10.848 25.728l0 950.848q0 14.848-10.848 25.728t-25.728 10.848l-731.424 0q-14.848 0-25.728-10.848t-10.848-25.728l0-950.848q0-14.848 10.848-25.728t25.728-10.848l731.424 0zM361.01392 164.576l0 36.576q0 8 5.152 13.152t13.152 5.152l36.576 0q8 0 13.152-5.152t5.152-13.152l0-36.576q0-8-5.152-13.152t-13.152-5.152l-36.576 0q-8 0-13.152 5.152t-5.152 13.152zM361.01392 310.848l0 36.576q0 8 5.152 13.152t13.152 5.152l36.576 0q8 0 13.152-5.152t5.152-13.152l0-36.576q0-8-5.152-13.152t-13.152-5.152l-36.576 0q-8 0-13.152 5.152t-5.152 13.152zM361.01392 457.152l0 36.576q0 8 5.152 13.152t13.152 5.152l36.576 0q8 0 13.152-5.152t5.152-13.152l0-36.576q0-8-5.152-13.152t-13.152-5.152l-36.576 0q-8 0-13.152 5.152t-5.152 13.152zM361.01392 603.424l0 36.576q0 8 5.152 13.152t13.152 5.152l36.576 0q8 0 13.152-5.152t5.152-13.152l0-36.576q0-8-5.152-13.152t-13.152-5.152l-36.576 0q-8 0-13.152 5.152t-5.152 13.152zM287.86192 786.272l0-36.576q0-8-5.152-13.152t-13.152-5.152l-36.576 0q-8 0-13.152 5.152t-5.152 13.152l0 36.576q0 8 5.152 13.152t13.152 5.152l36.576 0q8 0 13.152-5.152t5.152-13.152zM287.86192 640l0-36.576q0-8-5.152-13.152t-13.152-5.152l-36.576 0q-8 0-13.152 5.152t-5.152 13.152l0 36.576q0 8 5.152 13.152t13.152 5.152l36.576 0q8 0 13.152-5.152t5.152-13.152zM287.86192 493.728l0-36.576q0-8-5.152-13.152t-13.152-5.152l-36.576 0q-8 0-13.152 5.152t-5.152 13.152l0 36.576q0 8 5.152 13.152t13.152 5.152l36.576 0q8 0 13.152-5.152t5.152-13.152zM287.86192 347.424l0-36.576q0-8-5.152-13.152t-13.152-5.152l-36.576 0q-8 0-13.152 5.152t-5.152 13.152l0 36.576q0 8 5.152 13.152t13.152 5.152l36.576 0q8 0 13.152-5.152t5.152-13.152zM287.86192 201.152l0-36.576q0-8-5.152-13.152t-13.152-5.152l-36.576 0q-8 0-13.152 5.152t-5.152 13.152l0 36.576q0 8 5.152 13.152t13.152 5.152l36.576 0q8 0 13.152-5.152t5.152-13.152zM580.43792 932.576l0-109.728q0-8-5.152-13.152t-13.152-5.152l-182.848 0q-8 0-13.152 5.152t-5.152 13.152l0 109.728q0 8 5.152 13.152t13.152 5.152l182.848 0q8 0 13.152-5.152t5.152-13.152zM580.43792 640l0-36.576q0-8-5.152-13.152t-13.152-5.152l-36.576 0q-8 0-13.152 5.152t-5.152 13.152l0 36.576q0 8 5.152 13.152t13.152 5.152l36.576 0q8 0 13.152-5.152t5.152-13.152zM580.43792 493.728l0-36.576q0-8-5.152-13.152t-13.152-5.152l-36.576 0q-8 0-13.152 5.152t-5.152 13.152l0 36.576q0 8 5.152 13.152t13.152 5.152l36.576 0q8 0 13.152-5.152t5.152-13.152zM580.43792 347.424l0-36.576q0-8-5.152-13.152t-13.152-5.152l-36.576 0q-8 0-13.152 5.152t-5.152 13.152l0 36.576q0 8 5.152 13.152t13.152 5.152l36.576 0q8 0 13.152-5.152t5.152-13.152zM580.43792 201.152l0-36.576q0-8-5.152-13.152t-13.152-5.152l-36.576 0q-8 0-13.152 5.152t-5.152 13.152l0 36.576q0 8 5.152 13.152t13.152 5.152l36.576 0q8 0 13.152-5.152t5.152-13.152zM726.70992 786.272l0-36.576q0-8-5.152-13.152t-13.152-5.152l-36.576 0q-8 0-13.152 5.152t-5.152 13.152l0 36.576q0 8 5.152 13.152t13.152 5.152l36.576 0q8 0 13.152-5.152t5.152-13.152zM726.70992 640l0-36.576q0-8-5.152-13.152t-13.152-5.152l-36.576 0q-8 0-13.152 5.152t-5.152 13.152l0 36.576q0 8 5.152 13.152t13.152 5.152l36.576 0q8 0 13.152-5.152t5.152-13.152zM726.70992 493.728l0-36.576q0-8-5.152-13.152t-13.152-5.152l-36.576 0q-8 0-13.152 5.152t-5.152 13.152l0 36.576q0 8 5.152 13.152t13.152 5.152l36.576 0q8 0 13.152-5.152t5.152-13.152zM726.70992 347.424l0-36.576q0-8-5.152-13.152t-13.152-5.152l-36.576 0q-8 0-13.152 5.152t-5.152 13.152l0 36.576q0 8 5.152 13.152t13.152 5.152l36.576 0q8 0 13.152-5.152t5.152-13.152zM726.70992 201.152l0-36.576q0-8-5.152-13.152t-13.152-5.152l-36.576 0q-8 0-13.152 5.152t-5.152 13.152l0 36.576q0 8 5.152 13.152t13.152 5.152l36.576 0q8 0 13.152-5.152t5.152-13.152z" p-id="4496"></path></svg>