<?xml version="1.0" standalone="no"?><!DOCTYPE svg PUBLIC "-//W3C//DTD SVG 1.1//EN" "http://www.w3.org/Graphics/SVG/1.1/DTD/svg11.dtd"><svg t="1542854838404" class="icon" style="" viewBox="0 0 1024 1024" version="1.1" xmlns="http://www.w3.org/2000/svg" p-id="3032" xmlns:xlink="http://www.w3.org/1999/xlink" width="200" height="200"><defs><style type="text/css"></style></defs><path d="M0 0l0 128 128 0 0-128-128 0zm256 0l0 128 128 0 0-128-128 0zm256 0l0 128 128 0 0-128-128 0zm256 0l0 128 128 0 0-128-128 0zm-768 256l0 128 128 0 0-128-128 0zm256 0l0 128 128 0 0-128-128 0zm256 0l0 128 128 0 0-128-128 0zm256 0l0 128 128 0 0-128-128 0zm-768 256l0 128 128 0 0-128-128 0zm256 0l0 128 128 0 0-128-128 0zm256 0l0 128 128 0 0-128-128 0zm256 0l0 128 128 0 0-128-128 0zm-768 256l0 128 128 0 0-128-128 0zm256 0l0 128 128 0 0-128-128 0zm256 0l0 128 128 0 0-128-128 0zm256 0l0 128 128 0 0-128-128 0z" p-id="3033"></path></svg>