<?xml version="1.0" standalone="no"?><!DOCTYPE svg PUBLIC "-//W3C//DTD SVG 1.1//EN" "http://www.w3.org/Graphics/SVG/1.1/DTD/svg11.dtd"><svg t="1542855354527" class="icon" style="" viewBox="0 0 1024 1024" version="1.1" xmlns="http://www.w3.org/2000/svg" p-id="6267" xmlns:xlink="http://www.w3.org/1999/xlink" width="200" height="200"><defs><style type="text/css"></style></defs><path d="M881.934699 374.261171c-202.908982-202.908982-533.052084-202.908982-735.961066 0L10.462041 509.78983l131.60326 131.60326c98.288571 98.288571 228.970216 152.42494 367.980533 152.42494s269.674895-54.119302 367.963466-152.42494l135.528659-135.528659-131.60326-131.60326z m-28.058068 242.99925c-91.837264 91.837264-213.951299 142.423707-343.830797 142.423707S258.052301 709.114752 166.215037 617.260421L58.727379 509.78983l111.39599-111.39599c189.59676-189.579693 498.116035-189.579693 687.678661 0l107.470591 107.470591-111.39599 111.39599z" fill="" p-id="6268"></path><path d="M506.37644 289.609093c-120.57801 0-218.678845 98.100835-218.678845 218.678845s98.100835 218.678845 218.678845 218.678845 218.678845-98.100835 218.678844-218.678845-98.100835-218.678845-218.678844-218.678845z m0 403.206721c-101.753163 0-184.544942-82.79178-184.544943-184.544943 0-101.753163 82.79178-184.544942 184.544943-184.544942s184.544942 82.79178 184.544942 184.544942c0 101.77023-82.79178 184.544942-184.544942 184.544943zM441.300155 102.38464a17.01575 17.01575 0 0 0 12.066334-5.000617l39.134519-39.134519v129.469891a17.066951 17.066951 0 0 0 34.133903 0V58.249504l39.134518 39.134519a17.01575 17.01575 0 0 0 24.132669 0 17.049884 17.049884 0 0 0 0-24.132669l-68.267804-68.267804a17.084018 17.084018 0 0 0-24.132669 0l-68.267804 68.267804a17.049884 17.049884 0 0 0 12.066334 29.133286zM565.769429 926.59891l-39.134518 39.134519v-129.469891a17.066951 17.066951 0 0 0-34.133903 0v129.469891l-39.134519-39.134519a17.049884 17.049884 0 1 0-24.132668 24.132669l68.267804 68.267804a17.237621 17.237621 0 0 0 12.066334 5.000617 17.237621 17.237621 0 0 0 12.066335-5.000617l68.267804-68.267804a17.049884 17.049884 0 1 0-24.132669-24.132669z" fill="" p-id="6269"></path></svg>