<?xml version="1.0" standalone="no"?><!DOCTYPE svg PUBLIC "-//W3C//DTD SVG 1.1//EN" "http://www.w3.org/Graphics/SVG/1.1/DTD/svg11.dtd"><svg t="1542855864844" class="icon" style="" viewBox="0 0 1024 1024" version="1.1" xmlns="http://www.w3.org/2000/svg" p-id="12826" xmlns:xlink="http://www.w3.org/1999/xlink" width="200" height="200"><defs><style type="text/css"></style></defs><path d="M832 832 832 832 832 192c0-35.328-28.608-64-64-64s-64 28.672-64 64l0 640 0 0c0 105.984-85.952 192-192 192s-192-86.016-192-192L320 192c0-35.328-28.608-64-64-64S192 156.672 192 192l0 640 0 0c0 105.984-85.952 192-192 192l0-128c35.392 0 64-28.608 64-64l0 0L64 192c0-106.048 85.952-192 192-192s192 85.952 192 192l0 640c0 35.392 28.608 64 64 64s64-28.608 64-64L576 192l0 0c0-106.048 85.952-192 192-192s192 85.952 192 192l0 640c0 35.392 28.608 64 64 64l0 128C917.952 1024 832 937.984 832 832z" p-id="12827"></path></svg>